<svg xmlns="http://www.w3.org/2000/svg" viewBox="0 0 192 128" role="img" aria-label="laxstund">
<rect width="192" height="128" rx="20" fill="#18211F"/>
<rect x="12" y="20" width="168" height="84" rx="18" fill="#C87362" opacity=".12"/>
<g transform="translate(18 34) scale(.72)"><rect x="11" y="24" width="42" height="23" rx="8" fill="#C87362"/><path d="M19 24v-8h26v8" fill="none" stroke="#B86445" stroke-width="4"/><rect x="25" y="31" width="14" height="9" rx="3" fill="#F7F2E8"/></g><g transform="translate(64 34) scale(.72)"><rect x="16" y="12" width="32" height="42" rx="8" fill="#C87362"/><rect x="21" y="18" width="22" height="15" rx="5" fill="#F7F2E8"/><circle cx="32" cy="44" r="4" fill="#B86445"/></g><g transform="translate(110 34) scale(.72)"><rect x="16" y="12" width="32" height="42" rx="8" fill="#C87362"/><rect x="21" y="18" width="22" height="15" rx="5" fill="#F7F2E8"/><circle cx="32" cy="44" r="4" fill="#B86445"/></g>
<path d="M20 103h152" stroke="#C87362" stroke-width="4" stroke-linecap="round" opacity=".45"/>
</svg>