<svg xmlns="http://www.w3.org/2000/svg" viewBox="0 0 64 64" role="img" aria-labelledby="title">
<title id="title">Present</title>
<defs>
  <linearGradient id="g" x1="10" y1="8" x2="54" y2="56" gradientUnits="userSpaceOnUse">
    <stop offset="0" stop-color="#FFF7D6"/>
    <stop offset=".72" stop-color="#FFF7D6"/>
    <stop offset="1" stop-color="#F59E0B"/>
  </linearGradient>
  <filter id="shadow" x="-30%" y="-30%" width="160%" height="170%">
    <feDropShadow dx="0" dy="2" stdDeviation="1.4" flood-color="#020617" flood-opacity=".58"/>
  </filter>
</defs>
<g filter="url(#shadow)">
  <g fill="none" stroke="url(#g)" stroke-width="6.2" stroke-linecap="round" stroke-linejoin="round">
    <rect x="9" y="27" width="46" height="28" rx="5"/><path d="M7 20h50v13H7zM32 20v35"/><path d="M32 20c-13 1-17-3-15-8 3-7 13 1 15 8Zm0 0c13 1 17-3 15-8-3-7-13 1-15 8Z"/>
  </g>

  <g aria-hidden="true" opacity=".96">
    <circle cx="53" cy="11" r="3.6" fill="#F4C95D"/>
    <path d="m53 8.4.8 1.7 1.9.3-1.4 1.3.3 1.9-1.6-.9-1.7.9.4-1.9-1.4-1.3 1.9-.3Z" fill="#FFFDF2"/>
  </g>
</g>
</svg>